<svg width="120.807" height="70" viewBox="0 0 120.807 70" xmlns="http://www.w3.org/2000/svg"><g id="svgGroup" stroke-linecap="round" fill-rule="evenodd" font-size="9pt" stroke="#825454" stroke-width="0.25mm" fill="#854444" style="stroke:#825454;stroke-width:0.25mm;fill:#854444"><path d="M 0 2.2 L 0 0 L 36 0 L 36 2.2 L 25.4 2.2 L 25.4 67.8 L 29 67.8 A 22.497 22.497 0 0 0 34.89 67.069 A 16.462 16.462 0 0 0 42.55 62.6 Q 47.6 57.4 52.8 46.6 L 54.9 46.6 L 53 70 L 0 70 L 0 67.8 L 5.9 67.8 L 5.9 2.2 L 0 2.2 Z M 59.6 1.9 L 59.6 0 L 89.5 0 A 82.935 82.935 0 0 1 96.769 0.297 Q 105.355 1.055 110.35 3.75 A 12.476 12.476 0 0 1 116.955 12.692 A 18.938 18.938 0 0 1 117.3 16.4 Q 117.3 29.346 102.566 32.47 A 38.489 38.489 0 0 1 100.8 32.8 L 100.8 33 A 40.843 40.843 0 0 1 108.471 34.647 Q 120.8 38.702 120.8 50.4 A 22.452 22.452 0 0 1 120.077 56.295 A 14.471 14.471 0 0 1 112.6 65.65 A 30.814 30.814 0 0 1 106.112 68.127 Q 99.558 69.88 90.29 69.993 A 105.841 105.841 0 0 1 89 70 L 59.6 70 L 59.6 68.1 L 66.1 68.1 L 66.1 1.9 L 59.6 1.9 Z M 87.9 34.6 L 85.6 34.6 L 85.6 68.1 L 90.3 68.1 A 12.369 12.369 0 0 0 93.204 67.783 A 7.246 7.246 0 0 0 98 64.3 A 13.437 13.437 0 0 0 99.253 61.263 Q 100.121 58.231 100.193 53.896 A 47.832 47.832 0 0 0 100.2 53.1 L 100.2 47.8 A 25.763 25.763 0 0 0 99.962 44.172 Q 99.398 40.221 97.5 37.9 A 7.783 7.783 0 0 0 94.404 35.674 Q 91.913 34.633 88.137 34.601 A 28.406 28.406 0 0 0 87.9 34.6 Z M 88.8 1.9 L 85.6 1.9 L 85.6 32.7 L 88.2 32.7 Q 91.433 32.7 93.448 31.483 A 6.152 6.152 0 0 0 95.45 29.55 A 10.328 10.328 0 0 0 96.617 26.989 Q 97.411 24.449 97.491 20.742 A 39.161 39.161 0 0 0 97.5 19.9 L 97.5 15.2 Q 97.5 9.451 96.413 6.388 A 8.237 8.237 0 0 0 95.7 4.85 A 5.578 5.578 0 0 0 92.856 2.549 Q 91.841 2.154 90.557 1.999 A 14.752 14.752 0 0 0 88.8 1.9 Z" vector-effect="non-scaling-stroke"/></g></svg>